<svg xmlns="http://www.w3.org/2000/svg" width="83.387" height="83.389" viewBox="0 0 83.387 83.389"><path d="M420.02,160.994c11.133,0,12.452.043,16.848.243a23.1,23.1,0,0,1,7.743,1.436,13.8,13.8,0,0,1,7.912,7.913,23.029,23.029,0,0,1,1.436,7.741c.2,4.4.243,5.715.243,16.848s-.042,12.452-.243,16.848a23.039,23.039,0,0,1-1.436,7.741,13.8,13.8,0,0,1-7.912,7.913,23.1,23.1,0,0,1-7.743,1.436c-4.4.2-5.714.243-16.848.243s-12.452-.043-16.848-.243a23.088,23.088,0,0,1-7.742-1.436,13.809,13.809,0,0,1-7.913-7.913,23.087,23.087,0,0,1-1.436-7.741c-.2-4.4-.243-5.715-.243-16.848s.043-12.452.243-16.848a23.077,23.077,0,0,1,1.436-7.741,13.809,13.809,0,0,1,7.913-7.913,23.088,23.088,0,0,1,7.742-1.436c4.4-.2,5.715-.243,16.848-.243m0-7.513c-11.322,0-12.742.048-17.19.252a30.613,30.613,0,0,0-10.12,1.938,21.322,21.322,0,0,0-12.195,12.195,30.613,30.613,0,0,0-1.938,10.12c-.2,4.448-.25,5.866-.25,17.19s.048,12.744.25,17.19a30.6,30.6,0,0,0,1.938,10.12,21.322,21.322,0,0,0,12.195,12.194,30.613,30.613,0,0,0,10.12,1.938c4.448.2,5.868.252,17.19.252s12.744-.048,17.19-.252a30.615,30.615,0,0,0,10.122-1.938,21.326,21.326,0,0,0,12.193-12.194,30.6,30.6,0,0,0,1.939-10.12c.2-4.446.25-5.866.25-17.19s-.048-12.742-.25-17.19a30.605,30.605,0,0,0-1.939-10.12,21.326,21.326,0,0,0-12.193-12.195,30.615,30.615,0,0,0-10.122-1.938c-4.446-.2-5.866-.252-17.19-.252" transform="translate(-378.327 -153.481)" fill="#495f6b"/><path d="M409.694,164.923A19.927,19.927,0,1,0,429.62,184.85a19.926,19.926,0,0,0-19.926-19.927m0,32.862a12.935,12.935,0,1,1,12.934-12.935,12.935,12.935,0,0,1-12.934,12.935" transform="translate(-368.001 -143.156)" fill="#495f6b"/><path d="M421.591,166.629a5.006,5.006,0,1,1-5.007-5.005,5.007,5.007,0,0,1,5.007,5.005" transform="translate(-354.292 -145.534)" fill="#495f6b"/></svg>