<svg xmlns="http://www.w3.org/2000/svg" width="29.346" height="29.346" viewBox="0 0 29.346 29.346"><g transform="translate(-378.327 -153.481)"><path d="M393,156.125c3.918,0,4.382.015,5.929.085a8.13,8.13,0,0,1,2.725.505,4.856,4.856,0,0,1,2.784,2.785,8.105,8.105,0,0,1,.505,2.724c.07,1.547.085,2.011.085,5.929s-.015,4.382-.085,5.929a8.109,8.109,0,0,1-.505,2.724,4.856,4.856,0,0,1-2.784,2.785,8.13,8.13,0,0,1-2.725.505c-1.547.071-2.011.085-5.929.085s-4.382-.015-5.929-.085a8.125,8.125,0,0,1-2.724-.505,4.86,4.86,0,0,1-2.785-2.785,8.125,8.125,0,0,1-.505-2.724c-.07-1.547-.085-2.011-.085-5.929s.015-4.382.085-5.929a8.122,8.122,0,0,1,.505-2.724,4.86,4.86,0,0,1,2.785-2.785,8.125,8.125,0,0,1,2.724-.505c1.548-.071,2.011-.085,5.929-.085m0-2.644c-3.985,0-4.484.017-6.05.089a10.774,10.774,0,0,0-3.562.682,7.5,7.5,0,0,0-4.292,4.292,10.773,10.773,0,0,0-.682,3.562c-.071,1.565-.088,2.064-.088,6.05s.017,4.485.088,6.05a10.77,10.77,0,0,0,.682,3.562,7.5,7.5,0,0,0,4.292,4.292,10.774,10.774,0,0,0,3.562.682c1.565.072,2.065.089,6.05.089s4.485-.017,6.05-.089a10.774,10.774,0,0,0,3.562-.682,7.505,7.505,0,0,0,4.291-4.292,10.768,10.768,0,0,0,.682-3.562c.071-1.565.088-2.064.088-6.05s-.017-4.484-.088-6.05a10.772,10.772,0,0,0-.682-3.562,7.5,7.5,0,0,0-4.291-4.292,10.774,10.774,0,0,0-3.562-.682c-1.565-.072-2.064-.089-6.05-.089" fill="#dcaf27"/><path d="M396.781,164.923a7.013,7.013,0,1,0,7.012,7.013,7.012,7.012,0,0,0-7.012-7.013m0,11.565a4.552,4.552,0,1,1,4.552-4.552,4.552,4.552,0,0,1-4.552,4.552" transform="translate(-3.781 -3.782)" fill="#dcaf27"/><path d="M415.1,163.385a1.762,1.762,0,1,1-1.762-1.761,1.762,1.762,0,0,1,1.762,1.761" transform="translate(-13.092 -2.481)" fill="#dcaf27"/></g></svg>