<svg xmlns="http://www.w3.org/2000/svg" width="33.349" height="33.222" viewBox="0 0 33.349 33.222"><g transform="translate(-100.287 -81.331)"><rect width="5.878" height="22.68" transform="translate(101.14 91.872)" fill="#dcaf27"/><path d="M103.652,78.318a3.393,3.393,0,1,0-3.365-3.393A3.38,3.38,0,0,0,103.652,78.318Z" transform="translate(0 9.799)" fill="#dcaf27"/><path d="M123.082,96.375c0-3.164,1.61-5.049,4.694-5.049,2.832,0,4.192,1.809,4.192,5.049v11.812h7.667V93.939c0-6.027-3.779-8.942-9.055-8.942a8.793,8.793,0,0,0-7.5,3.718V85.684h-7.389v22.5h7.389Z" transform="translate(-6 6.366)" fill="#dcaf27"/></g></svg>