<svg xmlns="http://www.w3.org/2000/svg" width="83.387" height="83.071" viewBox="0 0 83.387 83.071"><g transform="translate(0 0.001)"><g transform="translate(0 -0.001)"><rect width="14.697" height="56.711" transform="translate(2.133 26.359)" fill="#495f6b"/><path d="M108.7,88.5a8.485,8.485,0,1,0-8.415-8.485A8.453,8.453,0,0,0,108.7,88.5Z" transform="translate(-100.287 -71.532)" fill="#495f6b"/></g><path d="M134.169,113.447c0-7.912,4.027-12.625,11.737-12.625,7.081,0,10.483,4.524,10.483,12.625v29.537h19.172V107.355C175.561,92.284,166.113,85,152.92,85s-18.751,9.3-18.751,9.3V86.714H115.693v56.269h18.476Z" transform="translate(-92.174 -59.913)" fill="#495f6b"/></g></svg>