<svg xmlns="http://www.w3.org/2000/svg" width="25.429" height="29.346" viewBox="0 0 25.429 29.346"><g transform="translate(-256.369 -402.724)"><g transform="translate(260.1 402.724)"><path d="M284.232,416.384a2.455,2.455,0,0,0,1.8-1.043v.922h1.553v-8.354h-1.553v6.34c-.19.237-.611.626-.913.626-.333,0-.414-.226-.414-.562v-6.405h-1.554v6.984C283.147,415.716,283.4,416.384,284.232,416.384Z" transform="translate(-271.534 -404.938)" fill="#dcaf27"/><path d="M272.977,414.128a2.009,2.009,0,0,0,2.276,2.239,2.127,2.127,0,0,0,2.232-2.239v-4.094a2.181,2.181,0,0,0-2.232-2.245,2.138,2.138,0,0,0-2.276,2.245Zm1.6-3.957c0-.457.211-.8.647-.8.476,0,.68.329.68.8v3.887c0,.455-.231.791-.65.791a.7.7,0,0,1-.677-.791Z" transform="translate(-267.192 -404.887)" fill="#dcaf27"/><path d="M264.96,414.049h1.75v-4.594l2.035-6.731h-1.776l-1.121,4.526-1.207-4.526H262.88l2.08,6.731Z" transform="translate(-262.88 -402.724)" fill="#dcaf27"/></g><g transform="translate(256.369 415.95)"><path d="M278.237,425.806H259.93a3.562,3.562,0,0,0-3.561,3.562v9a3.56,3.56,0,0,0,3.561,3.561h18.307a3.56,3.56,0,0,0,3.561-3.561v-9A3.562,3.562,0,0,0,278.237,425.806ZM262.37,439.26H260.7v-9.219h-1.725v-1.566h5.113v1.566H262.37Zm5.925,0h-1.479v-.877a3.275,3.275,0,0,1-.851.739c-.8.456-1.892.448-1.892-1.168V431.3h1.479v6.1c0,.32.078.537.394.537.288,0,.69-.37.87-.6V431.3H268.3Zm5.694-1.648c0,.984-.368,1.749-1.352,1.749a1.693,1.693,0,0,1-1.406-.712v.611h-1.493V428.474h1.493v3.473a1.773,1.773,0,0,1,1.315-.743c1.083,0,1.443.915,1.443,1.993Zm5.468-2.143h-2.829v1.5c0,.6.05,1.113.646,1.113.625,0,.661-.42.661-1.113v-.553h1.522v.6c0,1.532-.659,2.462-2.217,2.462-1.413,0-2.134-1.03-2.134-2.462v-3.571a2.186,2.186,0,0,1,2.246-2.341c1.419,0,2.106.9,2.106,2.341Z" transform="translate(-256.369 -425.806)" fill="#dcaf27"/><path d="M292.386,437.483c-.548,0-.661.386-.661.933v.8h1.307v-.8C293.032,437.877,292.916,437.483,292.386,437.483Z" transform="translate(-271.467 -430.792)" fill="#dcaf27"/><path d="M282.612,437.51a1.092,1.092,0,0,0-.305.242v4.957a1.3,1.3,0,0,0,.351.28.626.626,0,0,0,.756-.082.9.9,0,0,0,.129-.548v-4.109a1.006,1.006,0,0,0-.159-.611A.613.613,0,0,0,282.612,437.51Z" transform="translate(-267.445 -430.77)" fill="#dcaf27"/></g></g></svg>